<?xml version="1.0" encoding="UTF-8"?>
<svg width="140px" height="30px" viewBox="0 0 140 30" version="1.1" xmlns="http://www.w3.org/2000/svg" xmlns:xlink="http://www.w3.org/1999/xlink">
    <!-- Generator: sketchtool 51.3 (57544) - http://www.bohemiancoding.com/sketch -->
    <title>12A978B6-BACB-4763-B33A-522BA3A21563</title>
    <desc>Created with sketchtool.</desc>
    <defs></defs>
    <g id="Symbols" stroke="none" stroke-width="1" fill="none" fill-rule="evenodd">
        <g id="Navigation---White" transform="translate(0.000000, -3.000000)" fill="#FFFFFF">
            <g id="Navigation">
                <g transform="translate(0.000000, 3.000000)" id="Logo">
                    <g>
                        <path d="M138.77595,15.9096793 C138.77595,17.6396608 137.12114,18.8303044 135.186672,18.8303044 C133.735822,18.8303044 132.433736,18.030234 132.433736,16.6540287 L132.433736,16.6167061 C132.433736,15.2962219 133.549735,14.4036335 135.558322,14.4036335 C136.916128,14.4036335 137.976406,14.6270434 138.77595,14.8315292 L138.77595,15.9096793 Z M138.682907,10.869551 C137.99533,10.181974 136.971849,9.82819778 135.688688,9.82819778 C134.479646,9.82819778 133.531336,10.1073288 132.564103,10.5346989 C132.471059,10.5720215 132.30337,10.7213119 132.30337,10.9441962 C132.30337,11.1676061 132.508381,11.3720919 132.731266,11.3720919 C132.786987,11.3720919 132.861632,11.3531678 132.936277,11.3163709 C133.717424,10.9441962 134.591614,10.6839893 135.632967,10.6839893 C137.585832,10.6839893 138.757552,11.6696214 138.757552,13.5851646 L138.757552,13.9941362 C137.845514,13.7523278 136.935052,13.5851646 135.614043,13.5851646 C133.159162,13.5851646 131.467028,14.701163 131.467028,16.6724272 L131.467028,16.7097498 C131.467028,18.681014 133.364173,19.6855703 135.130426,19.6855703 C136.935052,19.6855703 138.106772,18.7924562 138.757552,17.8814692 L138.757552,19.0721128 C138.757552,19.3507182 138.943114,19.5368055 139.20332,19.5368055 C139.464579,19.5368055 139.650666,19.3507182 139.650666,19.0721128 L139.650666,13.5483676 C139.650666,12.3761225 139.315288,11.5019325 138.682907,10.869551 L138.682907,10.869551 Z M129.718123,13.7155308 L129.718123,19.0721128 C129.718123,19.3507182 129.53151,19.5368055 129.270777,19.5368055 C129.011096,19.5368055 128.806084,19.3507182 128.806084,19.0721128 L128.806084,13.826973 C128.806084,11.7810635 127.746333,10.5909456 125.997427,10.5909456 C124.397812,10.5909456 123.003208,11.8183861 123.003208,13.9384151 L123.003208,19.0721128 C123.003208,19.3507182 122.817647,19.5368055 122.556914,19.5368055 C122.296181,19.5368055 122.092221,19.3507182 122.092221,19.0721128 L122.092221,13.7712519 C122.092221,11.799462 121.013546,10.5909456 119.320887,10.5909456 C117.628753,10.5909456 116.289345,12.0791187 116.289345,13.9941362 L116.289345,19.0721128 C116.289345,19.3507182 116.103258,19.5368055 115.843051,19.5368055 C115.582844,19.5368055 115.377833,19.3507182 115.377833,19.0721128 L115.377833,10.3675357 C115.377833,10.1073288 115.56392,9.90284298 115.824127,9.90284298 C116.084859,9.90284298 116.289345,10.0884047 116.289345,10.3675357 L116.289345,11.6696214 C116.903328,10.6839893 117.758594,9.75355257 119.451253,9.75355257 C121.106589,9.75355257 122.129018,10.7023878 122.649958,11.799462 C123.263941,10.7391847 124.286895,9.75355257 126.072072,9.75355257 C128.322468,9.75355257 129.718123,11.3347693 129.718123,13.7155308 L129.718123,13.7155308 Z M113.964305,10.3302131 C113.964305,10.5909456 113.778217,10.8138299 113.480688,10.832754 C111.472101,11.0183157 109.668,12.5254129 109.668,15.5748273 L109.668,19.0721128 C109.668,19.3323197 109.481387,19.5368055 109.221706,19.5368055 C108.960973,19.5368055 108.757013,19.3507182 108.757013,19.0721128 L108.757013,10.3675357 C108.757013,10.1073288 108.942049,9.90284298 109.202782,9.90284298 C109.463514,9.90284298 109.668,10.0884047 109.668,10.3675357 L109.668,12.673652 C110.486469,10.832754 112.141279,9.82819778 113.480688,9.82819778 C113.759293,9.82819778 113.964305,10.0510821 113.964305,10.3302131 L113.964305,10.3302131 Z M105.378529,15.9096793 C105.378529,17.6396608 103.722667,18.8303044 101.788725,18.8303044 C100.338401,18.8303044 99.0357892,18.030234 99.0357892,16.6540287 L99.0357892,16.6167061 C99.0357892,15.2962219 100.151788,14.4036335 102.1609,14.4036335 C103.518707,14.4036335 104.578459,14.6270434 105.378529,14.8315292 L105.378529,15.9096793 Z M102.291266,9.82819778 C101.081699,9.82819778 100.133389,10.1073288 99.1661555,10.5346989 C99.0731118,10.5720215 98.9054229,10.7213119 98.9054229,10.9441962 C98.9054229,11.1676061 99.1109601,11.3720919 99.3338444,11.3720919 C99.3895654,11.3720919 99.4642106,11.3531678 99.5383302,11.3163709 C100.319476,10.9441962 101.193666,10.6839893 102.234494,10.6839893 C104.187885,10.6839893 105.359605,11.6696214 105.359605,13.5851646 L105.359605,13.9941362 C104.448092,13.7523278 103.537105,13.5851646 102.216621,13.5851646 C99.7612144,13.5851646 98.0690812,14.701163 98.0690812,16.6724272 L98.0690812,16.7097498 C98.0690812,18.681014 99.9662259,19.6855703 101.733004,19.6855703 C103.537105,19.6855703 104.708825,18.7924562 105.359605,17.8814692 L105.359605,19.0721128 C105.359605,19.3507182 105.545692,19.5368055 105.805899,19.5368055 C106.066106,19.5368055 106.252719,19.3507182 106.252719,19.0721128 L106.252719,13.5483676 C106.252719,12.3761225 105.917867,11.5019325 105.28496,10.869551 C104.596857,10.181974 103.574428,9.82819778 102.291266,9.82819778 L102.291266,9.82819778 Z M97.0382415,18.7745834 C97.1307595,18.8860255 97.1680821,18.9790692 97.1680821,19.1089098 C97.1680821,19.3696423 96.9819947,19.5368055 96.7217878,19.5368055 C96.5546246,19.5368055 96.461581,19.4810845 96.3312147,19.3323197 L92.68569,14.8315292 L90.3800994,17.156044 L90.3800994,19.0721128 C90.3800994,19.3507182 90.1934864,19.5368055 89.9332795,19.5368055 C89.6730726,19.5368055 89.4680611,19.3507182 89.4680611,19.0721128 L89.4680611,6.2757168 C89.4680611,6.01550992 89.6541485,5.81049844 89.914881,5.81049844 C90.1750879,5.81049844 90.3800994,6.01550992 90.3800994,6.2757168 L90.3800994,16.0589698 L96.2013741,10.0326836 C96.2944178,9.94016558 96.3869358,9.90284298 96.5167764,9.90284298 C96.7585848,9.90284298 96.9451978,10.0884047 96.9451978,10.3302131 C96.9451978,10.4605793 96.9084009,10.5346989 96.796433,10.6466667 L93.3180716,14.1802235 L97.0382415,18.7745834 Z M87.8148275,10.3675357 C87.8148275,10.4605793 87.7959034,10.5163004 87.7585808,10.6093441 L83.909096,19.7975381 C83.071703,21.7872008 82.1044693,22.4937019 80.7466625,22.4937019 C80.114281,22.4937019 79.6306641,22.3822597 79.1286488,22.1961724 C78.9798841,22.1404513 78.868442,22.010085 78.868442,21.8061249 C78.868442,21.5643165 79.0545293,21.3777035 79.2963377,21.3777035 C79.3893814,21.3777035 79.4824251,21.4155518 79.5938672,21.4523487 C79.8913967,21.5643165 80.2257231,21.638436 80.8023836,21.638436 C81.8442624,21.638436 82.476644,20.9503334 83.0906271,19.5368055 L83.1463482,19.4064392 L78.9057646,10.6466667 C78.868442,10.553623 78.8311194,10.4605793 78.8311194,10.3675357 C78.8311194,10.1073288 79.0356052,9.90284298 79.3152619,9.90284298 C79.5938672,9.90284298 79.7053093,10.0705319 79.798353,10.274492 L83.5921167,18.4581297 L86.9027893,10.2371694 C86.9774345,10.0510821 87.1078008,9.90284298 87.3496092,9.90284298 C87.6103417,9.90284298 87.8148275,10.1073288 87.8148275,10.3675357 L87.8148275,10.3675357 Z M77.1442429,6.2757168 L77.1442429,19.0721128 C77.1442429,19.3507182 76.9581555,19.5368055 76.697423,19.5368055 C76.4377418,19.5368055 76.2327303,19.3507182 76.2327303,19.0721128 L76.2327303,6.2757168 C76.2327303,6.01550992 76.4188176,5.81049844 76.6795502,5.81049844 C76.939757,5.81049844 77.1442429,6.01550992 77.1442429,6.2757168 L77.1442429,6.2757168 Z M73.5171167,10.3675357 L73.5171167,19.0721128 C73.5171167,19.3507182 73.331555,19.5368055 73.0708225,19.5368055 C72.8111412,19.5368055 72.6061298,19.3507182 72.6061298,19.0721128 L72.6061298,10.3675357 C72.6061298,10.1073288 72.7922171,9.90284298 73.0529497,9.90284298 C73.3126309,9.90284298 73.5171167,10.0884047 73.5171167,10.3675357 L73.5171167,10.3675357 Z M73.6290845,6.72201102 L73.6290845,7.03793897 C73.6290845,7.35491826 73.3683519,7.59672667 73.0529497,7.59672667 C72.736496,7.59672667 72.494162,7.35491826 72.494162,7.03793897 L72.494162,6.72201102 C72.494162,6.40608307 72.736496,6.16427466 73.0529497,6.16427466 C73.3683519,6.16427466 73.6290845,6.40608307 73.6290845,6.72201102 L73.6290845,6.72201102 Z M69.2018879,15.9096793 C69.2018879,17.6396608 67.5465516,18.8303044 65.6120843,18.8303044 C64.1622851,18.8303044 62.8596737,18.030234 62.8596737,16.6540287 L62.8596737,16.6167061 C62.8596737,15.2962219 63.9756721,14.4036335 65.984259,14.4036335 C67.3420658,14.4036335 68.4023431,14.6270434 69.2018879,14.8315292 L69.2018879,15.9096793 Z M66.1146252,9.82819778 C64.9061088,9.82819778 63.9572737,10.1073288 62.99004,10.5346989 C62.8964707,10.5720215 62.7298331,10.7213119 62.7298331,10.9441962 C62.7298331,11.1676061 62.9348446,11.3720919 63.1572032,11.3720919 C63.21345,11.3720919 63.2875695,11.3531678 63.3622147,11.3163709 C64.1428353,10.9441962 65.017551,10.6839893 66.0589042,10.6839893 C68.0117699,10.6839893 69.1829637,11.6696214 69.1829637,13.5851646 L69.1829637,13.9941362 C68.2719768,13.7523278 67.3609899,13.5851646 66.0405057,13.5851646 C63.5856246,13.5851646 61.8929658,14.701163 61.8929658,16.6724272 L61.8929658,16.7097498 C61.8929658,18.681014 63.7901105,19.6855703 65.5568889,19.6855703 C67.3609899,19.6855703 68.5327094,18.7924562 69.1829637,17.8814692 L69.1829637,19.0721128 C69.1829637,19.3507182 69.3695767,19.5368055 69.6297836,19.5368055 C69.8905162,19.5368055 70.0766035,19.3507182 70.0766035,19.0721128 L70.0766035,13.5483676 C70.0766035,12.3761225 69.7417514,11.5019325 69.1093699,10.869551 C68.4212672,10.181974 67.3983125,9.82819778 66.1146252,9.82819778 L66.1146252,9.82819778 Z M59.1710441,14.7379599 C59.1710441,17.156044 57.2738994,18.811906 55.3026352,18.811906 C53.3129725,18.811906 51.582991,17.2122907 51.582991,14.7195614 L51.582991,14.6822388 C51.582991,12.1343141 53.2378016,10.6277425 55.3026352,10.6277425 C57.2738994,10.6277425 59.1710441,12.2641547 59.1710441,14.701163 L59.1710441,14.7379599 Z M59.5616173,5.81049844 C59.3014104,5.81049844 59.115323,5.99711146 59.115323,6.2757168 L59.115323,12.022872 C58.3341767,10.832754 57.1067362,9.75355257 55.2095915,9.75355257 C52.9218737,9.75355257 50.5973589,11.6322988 50.5973589,14.7195614 L50.5973589,14.756884 C50.5973589,17.8441466 52.9218737,19.6855703 55.2095915,19.6855703 C57.0883378,19.6855703 58.2968541,18.588496 59.115323,17.3421313 L59.115323,19.0721128 C59.115323,19.3507182 59.3198089,19.5368055 59.5805414,19.5368055 C59.841274,19.5368055 60.02631,19.3507182 60.02631,19.0721128 L60.02631,6.2757168 C60.02631,5.99711146 59.8223498,5.81049844 59.5616173,5.81049844 L59.5616173,5.81049844 Z M37.0913077,16.733405 C35.9816174,17.842044 34.1775164,17.842044 33.067826,16.733405 L33.0683517,16.733405 L31.0571365,14.7216641 L33.0683517,12.7104489 C33.6055869,12.1737394 34.3194474,11.8777869 35.0795669,11.8777869 C35.8396864,11.8777869 36.5535469,12.1737394 37.0913077,12.7104489 C37.6280173,13.2482098 37.9239697,13.962596 37.9239697,14.7216641 C37.9239697,15.4817836 37.6280173,16.1961697 37.0913077,16.733405 L37.0913077,16.733405 Z M24.7895676,17.9561144 L21.5519632,14.7216641 L24.7895676,11.4877394 L28.024018,14.7216641 L24.7895676,17.9561144 Z M12.8747209,26.6307284 C12.4447225,26.1996786 12.2081708,25.6240695 12.2081708,25.0100864 C12.2081708,24.3955776 12.4447225,23.8199684 12.8747209,23.38997 L15.278612,20.9887073 L18.5177933,24.2278887 L16.1154793,26.6307284 C15.2223652,27.5238425 13.7683607,27.5238425 12.8747209,26.6307284 L12.8747209,26.6307284 Z M12.0452129,14.7216641 L15.2791376,11.4877394 L18.5172677,14.7216641 L15.2991131,17.936139 L15.2791376,17.9561144 L12.0452129,14.7216641 Z M21.5509119,24.2278887 L24.7900933,20.9887073 L27.1939843,23.3894443 C27.6245084,23.8199684 27.8610601,24.3955776 27.8610601,25.0100864 C27.8610601,25.6240695 27.6245084,26.1996786 27.1939843,26.6307284 C26.3003445,27.5238425 24.8468657,27.5238425 23.9532259,26.6307284 L21.5509119,24.2278887 Z M20.0343526,16.2376977 L23.2730083,19.4726737 L20.0343526,22.7108038 L16.7956969,19.4726737 L20.0343526,16.2376977 Z M12.8747209,2.81417681 C13.6563929,2.03250484 14.8675377,1.93420446 15.7569721,2.52032703 C15.8836587,2.6044343 16.0040372,2.70220901 16.1154793,2.81365114 L18.5177933,5.21596515 L17.3797168,6.35351603 L15.2780863,8.45514653 L12.8747209,6.05440954 C12.7674842,5.94717276 12.6718121,5.82994825 12.5892819,5.70641569 C12.3411654,5.334241 12.2081708,4.89530617 12.2081708,4.43429317 C12.2081708,4.12677596 12.2670459,3.82977214 12.380065,3.55484649 C12.4936098,3.28044651 12.6602474,3.02917603 12.8747209,2.81417681 L12.8747209,2.81417681 Z M24.3122588,2.52032703 C24.9472687,2.10189334 25.7462878,2.03250484 26.4364932,2.31163585 C26.7119445,2.42307799 26.9705743,2.59076687 27.1939843,2.81417681 C27.4095092,3.02917603 27.5756211,3.28044651 27.6891659,3.55484649 C27.802185,3.82977214 27.8610601,4.12677596 27.8610601,4.43429317 C27.8610601,4.89530617 27.7275398,5.334241 27.4794234,5.70589002 C27.3974188,5.82994825 27.3017467,5.94664709 27.1939843,6.05388387 L24.7906189,8.45514653 L21.5509119,5.21596515 L23.9532259,2.81365114 C24.064668,2.70220901 24.1855722,2.6044343 24.3122588,2.52032703 L24.3122588,2.52032703 Z M20.0343526,13.2061562 L16.7956969,9.97118014 L20.0343526,6.73252443 L23.2730083,9.97118014 L22.6027785,10.6408843 L20.0343526,13.2061562 Z M7.00035353,16.733405 C5.89171453,17.842044 4.08708784,17.842044 2.97844883,16.733405 C2.44121362,16.1961697 2.14473548,15.4817836 2.14473548,14.7216641 C2.14473548,13.962596 2.44121362,13.2482098 2.97844883,12.7104489 C3.51515837,12.1737394 4.22954453,11.8777869 4.98913835,11.8777869 C5.74873216,11.8777869 6.46311832,12.1737394 7.0008792,12.7109746 L9.01209439,14.7216641 L7.00035353,16.733405 Z M35.0795669,9.73252575 C33.7469923,9.73252575 32.4937939,10.2513625 31.5512667,11.1938896 L29.5400516,13.2051048 L26.3071782,9.97170581 L28.7105436,7.57096882 C28.9192347,7.36227764 29.1047964,7.13623935 29.2651259,6.89600794 C29.7471657,6.1742624 30.0057956,5.32477894 30.0057956,4.43429317 C30.0057956,3.54328174 29.7471657,2.69379828 29.2651259,1.97257841 C29.1047964,1.73182133 28.9192347,1.50630871 28.7105436,1.29709186 C26.9805621,-0.432363954 24.1666481,-0.432363954 22.4366666,1.29709186 L20.0343526,3.69940587 L17.6325643,1.29709186 C15.9025828,-0.432363954 13.0881431,-0.432363954 11.3581617,1.29709186 C11.1499962,1.50630871 10.9639088,1.73182133 10.804105,1.97257841 C10.3220652,2.69379828 10.0634353,3.54328174 10.0634353,4.43429317 C10.0634353,5.17653987 10.2426889,5.88987468 10.5817464,6.52435893 C10.7851809,6.90547001 11.0453877,7.25819489 11.3586873,7.57149449 L13.7620527,9.97170581 L10.5286537,13.2051048 L8.51743848,11.1938896 C7.57491135,10.2513625 6.32171297,9.73252575 4.98913835,9.73252575 C3.65656373,9.73252575 2.40336535,10.2513625 1.46136388,11.1938896 C0.518836745,12.1364168 0,13.3890895 0,14.7216641 C0,16.0542387 0.518836745,17.3074371 1.46136388,18.2499642 C3.40634459,20.1949449 6.57193211,20.1949449 8.51743848,18.2499642 L10.5286537,16.2387491 L13.7620527,19.4721481 L11.3581617,21.8728851 C10.523397,22.7081754 10.0634353,23.8225968 10.0634353,25.0100864 C10.0634353,26.1970503 10.523397,27.3114716 11.3581617,28.146762 C12.2234152,29.0114899 13.3593891,29.4441167 14.495363,29.4441167 C15.6313368,29.4441167 16.7673107,29.0114899 17.6325643,28.146762 L20.0343526,25.744448 L22.4366666,28.146762 C24.1666481,29.8762178 26.9810878,29.8762178 28.7105436,28.146762 C29.5458339,27.3114716 30.0057956,26.1970503 30.0057956,25.0100864 C30.0057956,23.8225968 29.5458339,22.7081754 28.7100179,21.8728851 L26.3071782,19.4721481 L29.5400516,16.2387491 L31.5512667,18.2499642 C33.4972988,20.1949449 36.6623606,20.1944193 38.6073413,18.2499642 C39.5498685,17.3074371 40.0692309,16.0542387 40.0692309,14.7216641 C40.0692309,13.3890895 39.5498685,12.1364168 38.6073413,11.1938896 C37.6653399,10.2513625 36.4121415,9.73252575 35.0795669,9.73252575 L35.0795669,9.73252575 Z" id="Fill-1"></path>
                    </g>
                </g>
            </g>
        </g>
    </g>
</svg>